<svg version="1.1" viewBox="0 0 1200 600" xmlns="http://www.w3.org/2000/svg">
	<g transform="translate(0,-161.53332)">
		<g transform="matrix(.77958472 0 0 .77958472 66.008678 90.03534)">
			<circle cx="314.99985" cy="476.53317" r="244.04684" fill="#fdfdff" stroke="#8080ff" stroke-linecap="round" stroke-linejoin="round" stroke-width="25"/>
			<path d="m250.99983 365.68194 192 110.85126-191.99998 110.85125z" fill="none" stroke="#684ed9" stroke-linecap="round" stroke-linejoin="round" stroke-width="20"/>
			<circle cx="250.99983" cy="587.3844" r="63.340202" fill="#59baf8"/>
			<circle cx="250.99983" cy="365.68195" r="63.340202" fill="#a259f8"/>
			<circle cx="442.99985" cy="476.5332" r="63.340202" fill="#626ef0"/>
		</g>
		<g transform="translate(11.661329,203.81381)" fill="#6861e7" style="white-space:pre" aria-label="Interactive 
Graph 
Theory">
			<path d="m645.62594 99.031514q0 1.823996-1.824 2.591996t-5.376 1.44q-3.936 0.768-9.984 1.536-6.048 0.672-9.792 0.864-0.288 4.128-0.768 23.808t-0.576 29.088q5.184-0.096 13.632-0.672 7.104-0.384 7.968-0.384 1.728 0 3.072 0.768 1.44 0.768 1.44 2.4 0 1.344-0.48 1.92-0.384 0.576-1.824 0.576-0.576 0-3.168-0.288-1.92-0.384-3.264-0.384-4.512 0-18.048 0.576-0.48 0.672-1.152 0.96-0.576 0.384-1.056 0.384-0.576 0-1.152-0.288t-0.672-0.864l-4.32 0.48q-7.488 0.96-11.136 0.96-3.168 0-4.8-1.344-0.864-0.768-0.864-2.784 0-0.576 0.576-1.44 0.672-0.864 1.344-0.864 0.192 0 1.44 0.576 1.344 0.48 2.496 0.48 3.552 0 10.464-0.384l4.416-0.288 0.576-14.112q0.096-2.208 0.192-3.936 0.096-1.824 0.096-3.072l0.96-31.392q-9.984 0.672-9.504 0.672-9.792 0.768-11.52 0.768-1.632 0-3.072-1.056t-1.44-2.688q0-1.152 0.576-1.824 0.672-0.672 1.728-0.672 0.768 0 1.536 0.096t1.536 0.192q2.4 0.48 4.608 0.48 2.112 0 8.064-0.288 5.952-0.384 7.968-0.48 0.096-1.247996 0.864-2.015996 0.768-0.864 2.016-0.864 0.576 0 0.96 0.768t0.384 1.727996q5.568-0.192 20.064-2.495996 1.152-0.192 2.496-1.056 1.44-0.864 1.632-0.864 0.96 0 1.824 0.768t0.864 1.92zm42.43201 61.919996q0 1.152-0.96 1.92-0.96 0.864-2.304 0.864-0.96 0-1.632-0.48-0.672-0.384-0.672-1.152 0-3.936 0.576-12.192 0.576-8.832 0.576-14.688 0-5.664-0.384-9.216-0.288-3.648-1.536-3.648-3.264 0-7.2 8.16-3.84 8.064-8.832 21.312l-1.44 3.84q-0.384 0.96-1.344 1.536-0.864 0.576-1.824 0.576-1.152 0-1.536-0.192t-0.48-1.152l-0.768-7.872-1.44-13.824q-0.672-8.256-1.632-14.4-0.288-1.44-0.288-2.208 0-1.44 1.248-2.304 1.248-0.96 2.88-0.96 0.96 0 1.344 4.608 0.48 4.608 0.96 14.88l0.384 5.088q0.768 9.696 0.864 12.288 0.288-0.576 0.48-1.248 0.288-0.768 0.672-1.632 5.184-13.44 9.696-22.368 4.608-9.024 8.832-9.024 2.976 0 4.032 5.088 1.152 4.992 1.44 12.864 0.288 8.736 0.288 25.536zm53.75991-40.416q0 1.632-1.44 2.496-1.344 0.864-4.992 1.344-8.832 1.536-9.888 1.728l-6.24 1.056q0 4.992 0.096 10.464 0.192 5.472 0.48 9.6 0.384 5.568 1.344 8.544t1.056 3.36q0 0.96-1.248 1.728-1.152 0.864-2.208 0.864-0.576 0-0.96-0.384-0.384-0.288-0.672-1.056-0.576-1.344-1.152-4.992-0.48-3.648-0.768-8.064-0.288-3.936-0.48-9.12-0.096-5.28-0.096-10.176-5.376 0.864-11.04 2.112-5.088 1.056-6.048 1.056-1.152 0-2.208-0.672-0.96-0.672-0.96-1.824 0-1.248 0.864-1.632t2.88-0.384q1.44 0 4.224-0.48 2.784-0.576 3.552-0.768 6.432-1.248 8.736-1.632 0-2.016-0.192-5.28-0.192-4.416-0.192-6.72 0-3.744 0.192-5.76 0.288-2.112 0.96-3.744 0.768-1.92 2.88-1.92 0.864 0 1.152 0.288t0.288 1.056q0 0.576-0.48 3.36t-0.48 7.392q0 3.552 0.192 7.968l0.096 2.592q4.32-0.672 17.088-3.552 0.768-0.192 1.248-1.344 0.576-1.152 1.152-1.152 1.056 0 2.112 1.248 1.152 1.152 1.152 2.4zm41.18395 15.264q0.672 0 0.672 1.44 0 1.728-2.592 7.584-2.496 5.856-7.68 10.848-5.088 4.992-12.576 4.992-6.144 0-10.272-3.84t-4.128-11.808q0-7.488 3.456-14.784 3.456-7.392 9.024-12 5.568-4.704 11.52-4.704 3.552 0 5.952 1.632 2.496 1.536 2.496 4.512 0 3.36-3.84 6.528-3.744 3.168-9.792 5.568t-12.48 3.456q-1.152 4.416-1.152 8.64 0 5.568 2.592 8.64 2.688 3.072 7.584 3.072 7.392 0 12-5.28t7.68-11.904q0.192-0.384 0.672-1.44 0.48-1.152 0.864-1.152zm-8.448-15.072q0-1.536-1.632-2.4-1.536-0.864-3.648-0.864-3.648 0-7.008 2.4t-5.664 5.76q-2.208 3.36-2.88 5.952 4.416-0.48 9.312-2.496t8.16-4.416q3.36-2.4 3.36-3.936zm49.63207-0.864q0 0.864-1.248 2.016-1.152 1.056-2.016 1.056-0.672 0-1.344-0.576-0.576-0.576-1.344-1.632-0.672-0.96-1.824-1.632-1.056-0.672-2.208-0.672-2.784 0-7.488 7.392-4.704 7.296-9.216 18.432 0.096 2.208 0.288 5.568 0.288 3.36 0.384 4.992l0.288 3.84q0 1.344-0.576 2.304-0.576 1.056-2.112 1.056-1.632 0-2.112-4.32-0.48-4.416-0.576-12.768-0.096-2.112-0.192-6.048 0-3.936-0.192-9.408-0.288-8.256-0.288-11.808 0-2.208 2.688-2.208 1.632 0 1.92 1.44 0.384 1.344 0.384 5.28v15.264q2.88-7.392 6.24-12.768t6.528-8.16q3.264-2.88 5.76-2.88 2.112 0 4.032 0.96t3.072 2.496q1.152 1.44 1.152 2.784zm46.55995 34.272q0.096 0.672 0.768 1.44 0.672 0.672 0.672 1.152 0 1.152-0.96 2.688-0.96 1.44-1.92 1.44-1.632 0-2.496-2.016t-0.864-4.704q0-2.304 0.288-13.824l0.096-3.648q0-2.208-1.152-3.168-4.32 7.296-8.064 12.672t-9.504 10.176q-5.76 4.704-12.096 4.704-3.072 0-4.8-1.92-1.632-1.92-1.632-4.992 0-3.84 3.456-10.464 3.456-6.72 8.832-13.536 5.376-6.912 10.752-11.328 3.552-2.88 5.664-3.84 2.112-1.056 3.744-1.056 1.536 0 3.168 0.96t2.784 2.688 1.152 3.936q0 2.976-1.632 5.664l1.632-0.48q1.056 0 1.248 2.592 0.096 1.536 0.192 6.24 0.192 4.704 0.288 7.776 0.096 3.168 0.192 6.144t0.192 4.704zm-33.888 1.728q5.184 0 9.984-3.84t8.544-9.12q3.84-5.376 8.448-13.152 1.152-2.88 1.152-6.24 0-2.016-1.248-3.456-1.152-1.536-3.168-1.536-2.4 0-6.144 3.264-4.32 3.648-9.12 9.792-4.8 6.048-7.968 12t-3.168 9.408q0 2.88 2.688 2.88zm74.01594-16.704q0 0.576-2.016 3.552-1.92 2.976-3.936 5.376-4.992 6.048-9.024 9.312-3.936 3.264-8.256 3.264-3.648 0-6.048-3.168-2.304-3.168-2.304-7.296 0-6.144 3.264-15.552t8.256-16.32 9.984-6.912q2.112 0 3.648 1.536 0.864 0.864 1.632 2.304t0.768 2.592q0 1.632-0.48 3.84-0.384 2.112-0.864 2.112-0.96 0-1.248-1.056t-0.384-2.688q-0.288-2.496-0.576-3.264-0.288-0.864-0.864-0.864-4.512 0-8.736 6.336-4.224 6.24-6.912 14.592-2.688 8.256-2.688 12.768 0 6.336 4.224 6.336 3.072 0 5.568-1.536 2.592-1.536 5.376-4.32 5.184-5.28 8.064-9.12 0.192-0.288 1.056-1.44 0.96-1.248 1.344-1.248 1.152 0 1.152 0.864zm49.05603-18.624q0 1.632-1.44 2.496-1.344 0.864-4.992 1.344-8.832 1.536-9.888 1.728l-6.24 1.056q0 4.992 0.096 10.464 0.192 5.472 0.48 9.6 0.384 5.568 1.344 8.544t1.056 3.36q0 0.96-1.248 1.728-1.152 0.864-2.208 0.864-0.576 0-0.96-0.384-0.384-0.288-0.672-1.056-0.576-1.344-1.152-4.992-0.48-3.648-0.768-8.064-0.288-3.936-0.48-9.12-0.096-5.28-0.096-10.176-5.376 0.864-11.04 2.112-5.088 1.056-6.048 1.056-1.152 0-2.208-0.672-0.96-0.672-0.96-1.824 0-1.248 0.864-1.632t2.88-0.384q1.44 0 4.224-0.48 2.784-0.576 3.552-0.768 6.432-1.248 8.736-1.632 0-2.016-0.192-5.28-0.192-4.416-0.192-6.72 0-3.744 0.192-5.76 0.288-2.112 0.96-3.744 0.768-1.92 2.88-1.92 0.864 0 1.152 0.288t0.288 1.056q0 0.576-0.48 3.36t-0.48 7.392q0 3.552 0.192 7.968l0.096 2.592q4.32-0.672 17.088-3.552 0.768-0.192 1.248-1.344 0.576-1.152 1.152-1.152 1.056 0 2.112 1.248 1.152 1.152 1.152 2.4zm11.23195-20.352q0 1.44-3.168 1.44-1.632 0-3.36-1.344-1.632-1.343996-1.632-2.207996 0-1.056 0.96-2.016 1.056-0.96 2.112-0.96 0 0 0.672 0.288 0.768 0.192 1.728 1.248 0.768 0.768 1.728 2.016t0.96 1.535996zm2.4 60.384q0 0.96-0.864 1.44-0.768 0.576-1.824 0.48-1.344-0.096-2.016-4.32-0.576-4.224-1.248-16.032-0.384-7.776-0.672-15.168-0.288-7.488-0.384-11.52 0-1.056 0.288-1.536 0.384-0.576 1.344-0.576 2.208 0 2.784 1.824t0.576 7.008l-0.096 11.328q0 9.696 0.576 15.552 0 0.288 0.864 6.144 0.672 4.032 0.672 5.376zm59.32805-48.96q0 0.48-1.344 1.344-1.248 0.864-1.536 1.248-4.992 5.664-9.312 16.224t-6.816 22.848q-0.288 1.44-0.96 5.76l-0.48 3.36q-0.288 1.536-1.344 2.4-0.96 0.864-3.456 0.864-0.48 0-3.264-5.76-2.784-5.856-5.85601-12.576l-4.128-9.024q-3.744-8.16-6.24-12.768t-3.648-4.608q-0.384 0-0.672 0.48-0.192 0.48-0.48 0.48-0.48 0-0.864-0.384-0.288-0.48-0.288-0.96 0-1.248 1.344-3.264 1.44-2.016 2.784-2.016 0.96 0 1.44 0.384t0.864 0.864 0.576 0.768q2.304 2.88 7.968 15.168 2.016 4.32 9.98401 22.56l2.208 5.088q0-2.496 0.96-8.064 2.112-11.328 6.336-22.464t9.888-18.624q1.152-1.536 1.824-2.112 0.768-0.672 1.92-0.672 0.48 0 1.536 1.536 1.056 1.44 1.056 1.92zm40.512 24.192q0.672 0 0.672 1.44 0 1.728-2.592 7.584-2.496 5.856-7.68 10.848-5.088 4.992-12.576 4.992-6.144 0-10.272-3.84t-4.128-11.808q0-7.488 3.456-14.784 3.456-7.392 9.024-12 5.568-4.704 11.52-4.704 3.552 0 5.952 1.632 2.496 1.536 2.496 4.512 0 3.36-3.84 6.528-3.744 3.168-9.792 5.568t-12.48 3.456q-1.152 4.416-1.152 8.64 0 5.568 2.592 8.64 2.688 3.072 7.584 3.072 7.392 0 12-5.28t7.68-11.904q0.192-0.384 0.672-1.44 0.48-1.152 0.864-1.152zm-8.448-15.072q0-1.536-1.632-2.4-1.536-0.864-3.648-0.864-3.648 0-7.008 2.4t-5.664 5.76q-2.208 3.36-2.88 5.952 4.416-0.48 9.312-2.496t8.16-4.416q3.36-2.4 3.36-3.936z"/>
			<path d="m649.84994 289.30351q0.192 3.264 0.672 4.608 0.48 1.44 1.056 2.016 0.576 0.672 0.576 1.152 0 0.672-0.768 1.056-0.672 0.384-1.536 0.384-2.112 0-3.552-1.248-1.344-1.152-1.344-3.456 0-12.096 0.192-19.776l0.192-8.544q0.288-8.928 0.288-13.344-9.6 21.408-18.816 32.256-9.216 10.944-20.64 10.944-8.448 0-12.384-5.184t-3.936-16.128q0-14.688 6.624-28.704 6.624-14.112 16.992-22.944 10.464-8.832 21.12-8.832 3.36 0 4.512 2.112 1.248 2.112 1.248 4.416 0 2.4-0.48 3.84-0.384 1.344-0.96 1.344-0.48 0-0.768-0.864-0.192-0.864-0.48-3.072-0.288-2.112-0.96-3.072-0.672-1.056-2.4-1.056-8.832 0-18.24 8.64-9.312 8.64-15.552 21.888-6.144 13.152-6.144 25.728 0 7.968 2.592 12.384 2.688 4.512 9.6 4.512 7.488 0 13.92-5.856t11.424-14.4q5.088-8.64 12-22.848-4.896 0.96-13.728 3.84-3.744 1.248-3.744 1.248l-3.552 1.152q-3.552 1.248-5.76 1.92-2.208 0.576-3.648 0.576-0.96 0-1.536-0.864-0.48-0.96-0.48-2.016 0-1.344 3.936-2.688 3.936-1.44 11.808-3.168 3.072-0.672 8.832-2.304 0.96-0.288 5.76-1.536 4.896-1.248 6.816-1.248 0.192 0 1.056 0 0.96 0 1.344 0.768 0.384 0.672 0.384 2.208 0 0.864-1.152 1.536l-0.096 7.392q-0.288 7.488-0.288 16.32v13.632zm44.16003-49.44q0 0.864-1.248 2.016-1.152 1.056-2.016 1.056-0.672 0-1.344-0.576-0.576-0.576-1.344-1.632-0.672-0.96-1.824-1.632-1.056-0.672-2.208-0.672-2.784 0-7.488 7.392-4.704 7.296-9.216 18.432 0.096 2.208 0.288 5.568 0.288 3.36 0.384 4.992l0.288 3.84q0 1.344-0.576 2.304-0.576 1.056-2.112 1.056-1.632 0-2.112-4.32-0.48-4.416-0.576-12.768-0.096-2.112-0.192-6.048 0-3.936-0.192-9.408-0.288-8.256-0.288-11.808 0-2.208 2.688-2.208 1.632 0 1.92 1.44 0.384 1.344 0.384 5.28v15.264q2.88-7.392 6.24-12.768t6.528-8.16q3.264-2.88 5.76-2.88 2.112 0 4.032 0.96t3.072 2.496q1.152 1.44 1.152 2.784zm46.55996 34.272q0.096 0.672 0.768 1.44 0.672 0.672 0.672 1.152 0 1.152-0.96 2.688-0.96 1.44-1.92 1.44-1.632 0-2.496-2.016t-0.864-4.704q0-2.304 0.288-13.824l0.096-3.648q0-2.208-1.152-3.168-4.32 7.296-8.064 12.672t-9.504 10.176q-5.76 4.704-12.096 4.704-3.072 0-4.8-1.92-1.632-1.92-1.632-4.992 0-3.84 3.456-10.464 3.456-6.72 8.832-13.536 5.376-6.912 10.752-11.328 3.552-2.88 5.664-3.84 2.112-1.056 3.744-1.056 1.536 0 3.168 0.96t2.784 2.688 1.152 3.936q0 2.976-1.632 5.664l1.632-0.48q1.056 0 1.248 2.592 0.096 1.536 0.192 6.24 0.192 4.704 0.288 7.776 0.096 3.168 0.192 6.144t0.192 4.704zm-33.888 1.728q5.184 0 9.984-3.84t8.544-9.12q3.84-5.376 8.448-13.152 1.152-2.88 1.152-6.24 0-2.016-1.248-3.456-1.152-1.536-3.168-1.536-2.4 0-6.144 3.264-4.32 3.648-9.12 9.792-4.8 6.048-7.968 12t-3.168 9.408q0 2.88 2.688 2.88zm87.45594-18.624q0 6.816-8.832 10.56t-23.04 4.8q-0.192 6.528-0.192 10.656 0 5.472 0.48 9.984 0.192 1.728 0.192 2.4 0 1.536-0.672 2.592-0.672 1.152-1.92 1.152-1.728 0-1.92-1.248-0.096-1.632-0.288-5.088-0.096-3.36-0.096-6.816l0.096-13.44q-0.48 0-1.824 0.096-1.248 0.096-2.496 0.096-2.304 0-2.304-3.168 0-2.304 1.152-2.304 0.384 0 2.304 0.576t3.264 0.576l-0.096-27.168q-0.768-0.096-3.168-0.288-2.4-0.288-3.552-0.96-1.056-0.672-1.056-1.92 0-2.496 0.96-2.496 1.056 0 2.592 0.768 0.192 0.096 1.152 0.576 0.96 0.384 2.688 0.576 0.576-1.536 1.056-2.112 0.576-0.576 2.112-0.576 1.92 0 1.92 0.768 0 0.288-0.288 1.056-0.288 0.672-0.288 1.344 5.952 0.864 13.44 3.552 7.584 2.592 13.056 6.624 5.568 4.032 5.568 8.832zm-4.128 0.384q0-4.032-4.608-7.296t-11.136-5.376q-6.432-2.112-12.384-3.072 0.192 5.568 0.288 14.784 0.096 9.12 0.096 12.096 5.76 0 12.288-1.44 6.528-1.536 10.944-4.032 4.512-2.592 4.512-5.664zm53.47199 24q0 1.152-0.768 1.92-0.768 0.864-2.016 0.864-0.96 0-1.632-0.48-0.672-0.384-0.672-1.152l0.192-6.624q0.48-11.808 0.48-19.296 0-10.944-1.536-15.264-1.536-4.416-3.552-4.416-4.512 0-11.328 14.016-6.816 13.92-13.152 30.432-0.48 1.344-1.344 2.592-0.768 1.248-1.632 1.248-2.112 0-2.112-1.344 0-5.856-0.48-21.888-0.48-16.128-0.768-21.216-0.864-17.184-1.632-21.216t-0.768-4.32q0-0.96 1.056-1.44t2.688-0.48q1.344 0 1.92 6.144 0.672 6.048 0.96 15.552l0.096 2.688q0.192 2.976 0.288 17.088 0.096 14.016 0.096 20.64 4.416-11.04 8.256-19.68 3.936-8.64 9.024-16.128 5.088-7.584 9.408-7.584 3.648 0 6.144 6.144 2.496 6.048 2.496 18.144 0 5.376 0.192 14.976z"/>
			<path d="m652.34594 341.62351q0 0.768-0.672 1.632-0.672 0.768-1.728 0.768-0.288 0-2.016-0.48-1.632-0.576-3.072-0.576-4.608 0-10.464 0.48t-9.696 1.344q0.288 4.608 0.48 14.592 0.288 9.888 0.288 20.832 0 4.608-0.192 10.272-0.096 5.664-0.384 7.008-0.192 1.056-1.344 1.728-1.056 0.672-2.208 0.672-0.672 0-1.152-0.576t-0.48-1.344l0.096-3.36q0.576-7.488 0.576-18.432 0-7.872-0.192-17.952-0.192-10.176-0.384-12.576-19.2 2.112-25.632 3.936-1.152 0.384-2.592 0.384-1.728 0-3.36-1.248t-1.632-2.688q0-0.96 0.576-1.344 0.576-0.48 1.44-0.48 5.472-0.288 9.216-0.576 8.544-0.768 21.504-2.4 0-2.976 0.096-4.224 0.192-1.248 0.672-1.248 1.824 0 3.264 1.44 0.288 0.288 0.48 1.536 0.192 1.152 0.192 1.536 2.112-0.096 6.912-0.96 10.368-1.632 14.208-1.632 4.608 0 6.144 1.152 1.056 0.768 1.056 2.784zm48.67199 60q0 1.152-0.768 1.92-0.768 0.864-2.016 0.864-0.96 0-1.632-0.48-0.672-0.384-0.672-1.152l0.192-6.624q0.48-11.808 0.48-19.296 0-10.944-1.536-15.264-1.536-4.416-3.552-4.416-4.512 0-11.328 14.016-6.816 13.92-13.152 30.432-0.48 1.344-1.344 2.592-0.768 1.248-1.632 1.248-2.112 0-2.112-1.344 0-5.856-0.48-21.888-0.48-16.128-0.768-21.216-0.864-17.184-1.632-21.216t-0.768-4.32q0-0.96 1.056-1.44t2.688-0.48q1.344 0 1.92 6.144 0.672 6.048 0.96 15.552l0.096 2.688q0.192 2.976 0.288 17.088 0.096 14.016 0.096 20.64 4.416-11.04 8.256-19.68 3.936-8.64 9.024-16.128 5.088-7.584 9.408-7.584 3.648 0 6.144 6.144 2.496 6.048 2.496 18.144 0 5.376 0.192 14.976zm48.096-25.824q0.672 0 0.672 1.44 0 1.728-2.592 7.584-2.496 5.856-7.68 10.848-5.088 4.992-12.576 4.992-6.144 0-10.272-3.84t-4.128-11.808q0-7.488 3.456-14.784 3.456-7.392 9.024-12 5.568-4.704 11.52-4.704 3.552 0 5.952 1.632 2.496 1.536 2.496 4.512 0 3.36-3.84 6.528-3.744 3.168-9.792 5.568t-12.48 3.456q-1.152 4.416-1.152 8.64 0 5.568 2.592 8.64 2.688 3.072 7.584 3.072 7.392 0 12-5.28t7.68-11.904q0.192-0.384 0.672-1.44 0.48-1.152 0.864-1.152zm-8.448-15.072q0-1.536-1.632-2.4-1.536-0.864-3.648-0.864-3.648 0-7.008 2.4t-5.664 5.76q-2.208 3.36-2.88 5.952 4.416-0.48 9.312-2.496t8.16-4.416q3.36-2.4 3.36-3.936zm50.01607 19.68q0 3.744-2.784 8.64t-7.872 8.448q-5.088 3.456-11.616 3.456-6.432 0-9.504-3.552t-3.072-8.832q0-4.608 1.632-11.424 1.728-6.816 4.8-12.192 0.192-0.384 1.536-2.784 1.44-2.496 3.168-3.744 1.728-1.344 3.648-1.344 0.864 0 1.536 0.48 0.768 0.384 0.768 1.056 0 0.192-0.576 0.96-0.48 0.672-0.768 1.056-3.264 3.936-5.28 7.776-2.688 4.896-4.224 9.696-1.44 4.8-1.44 10.464 0 7.584 9.216 7.584 4.32 0 7.968-2.496 3.744-2.496 5.952-6.048 2.208-3.648 2.208-6.624 0-3.36-2.208-5.856t-6.048-5.28q-2.496-1.824-3.648-2.976t-1.152-1.92q0-1.152 1.632-1.824 1.632-0.768 3.84-0.768 1.248 0 1.632 0.192 0.384 0.096 0.384 0.48 0 0.192-0.384 0.672-0.288 0.384-0.288 0.672t1.92 1.92q3.84 3.168 6.432 6.432t2.592 7.68zm40.70395-20.544q0 0.864-1.248 2.016-1.152 1.056-2.016 1.056-0.672 0-1.344-0.576-0.576-0.576-1.344-1.632-0.672-0.96-1.824-1.632-1.056-0.672-2.208-0.672-2.784 0-7.488 7.392-4.704 7.296-9.216 18.432 0.096 2.208 0.288 5.568 0.288 3.36 0.384 4.992l0.288 3.84q0 1.344-0.576 2.304-0.576 1.056-2.112 1.056-1.632 0-2.112-4.32-0.48-4.416-0.576-12.768-0.096-2.112-0.192-6.048 0-3.936-0.192-9.408-0.288-8.256-0.288-11.808 0-2.208 2.688-2.208 1.632 0 1.92 1.44 0.384 1.344 0.384 5.28v15.264q2.88-7.392 6.24-12.768t6.528-8.16q3.264-2.88 5.76-2.88 2.112 0 4.032 0.96t3.072 2.496q1.152 1.44 1.152 2.784zm38.59196-2.016q0 2.208-1.056 9.6-1.152 8.448-1.248 9.504-1.248 11.808-1.824 18.048-0.48 6.144-0.48 11.136 0 4.128 0.576 6.528 0.672 2.4 1.344 3.744 0.768 1.44 0.768 1.728 0 0.864-1.536 1.536t-3.168 0.672q-1.248 0-2.016-3.36-0.672-3.36-0.672-10.464 0-5.376 1.056-14.496l1.44-13.248q-2.592 4.992-6.432 9.6-3.744 4.512-7.776 4.512-3.744 0-6.72-6.528t-4.704-14.784q-1.632-8.256-1.632-12.096 0-2.4 1.44-2.4 2.112 0 2.688 3.936 3.648 26.688 10.176 26.688 2.592 0 4.512-2.016 2.016-2.112 4.704-6.432 1.248-2.016 2.688-5.376t2.208-5.568l0.672-9.696q0.192-2.208 0.576-3.072 0.384-0.96 1.536-0.96 0.96 0 1.92 1.152 0.96 1.056 0.96 2.112z"/>
		</g>
	</g>
</svg>
